PathFileType	4	(X/Y/Z)	Patient4_TMGait_0pt4_03_right_04.trc.trc
DataRate	CameraRate	NumFrames	NumMarkers	Units	OrigDataRate	OrigDataStartFrame	OrigNumFrames
76.502732240437	76.502732240437	5	33	mm	76.502732240437	106	       141
Frame#	Time	Sacral			L.Shoulder			Chest			R.Shoulder			Neck			R.ASIS			L.ASIS			R.Thigh.Superior			R.Thigh.Lateral			R.Thigh.Inferior			R.Patella			L.Thigh.Superior			L.Thigh.Lateral			L.Thigh.Inferior			L.Patella			L.Shank.Superior			L.Shank.Lateral			L.Shank.Inferior			R.Shank.Superior			R.Shank.Lateral			R.Shank.Inferior			R.Heel			R.Midfoot.Superior			R.Midfoot.Lateral			R.Toe			L.Heel			L.Midfoot.Lateral			L.Midfoot.Superior			L.Toe			L.Elbow			L.Wrist			R.Elbow			R.Wrist			
		X1	Y1	Z1	X2	Y2	Z2	X3	Y3	Z3	X4	Y4	Z4	X5	Y5	Z5	X6	Y6	Z6	X7	Y7	Z7	X8	Y8	Z8	X9	Y9	Z9	X10	Y10	Z10	X11	Y11	Z11	X12	Y12	Z12	X13	Y13	Z13	X14	Y14	Z14	X15	Y15	Z15	X16	Y16	Z16	X17	Y17	Z17	X18	Y18	Z18	X19	Y19	Z19	X20	Y20	Z20	X21	Y21	Z21	X22	Y22	Z22	X23	Y23	Z23	X24	Y24	Z24	X25	Y25	Z25	X26	Y26	Z26	X27	Y27	Z27	X28	Y28	Z28	X29	Y29	Z29	X30	Y30	Z30	X31	Y31	Z31	X32	Y32	Z32	X33	Y33	Z33	

106	5.542500000000	783.104326156557	1010.842094350267	431.884781826157	981.011490115148	1436.655323590608	248.969272434541	1071.140532475083	1370.825629972140	418.635340401987	974.762555848293	1444.608787126296	585.718347581467	952.394318083833	1500.569597907091	404.852439737449	1006.987132924072	954.032791504963	561.382639374944	1007.811491959928	967.130751584010	287.006624528808	1098.681749682183	792.450140083065	530.718738984806	1069.374110340238	671.043246248638	611.142048989658	1159.092185496743	635.556049410589	532.216540058088	1189.636379215199	532.230692836173	557.812917628643	1045.805367309566	747.788198384673	317.903935716402	952.915149726003	636.739702210846	253.592759659419	1029.101751833921	555.798785651506	320.321750810705	1024.252309057541	488.165570819976	330.704433446330	998.341985228412	416.669858512266	321.020447149616	908.833223859917	302.686167966868	270.152445753281	956.613202535087	192.170538338774	343.675184777524	1132.430145085498	445.600343320096	570.643061391188	1029.694064312235	378.771853362867	639.710814284120	1040.942282664614	268.014398299949	594.542947683190	862.421449080471	160.988437077870	581.122474549292	1040.935304075320	141.061902772069	614.114593185990	936.183463215775	117.342839674813	651.874125410458	1128.616925282629	44.829541667790	637.597899923688	827.369666896630	37.952230638272	389.657133083547	897.557228121440	34.930572253217	305.272589010907	981.387660719336	96.377258488501	330.248996891198	1108.878852418276	46.241609641366	294.483061503340	1008.337222619153	1103.480191097137	93.272688081435	1230.180773315178	962.616829821158	79.933636425937	872.269655530715	1114.897611659706	709.259830409521	895.175390213545	855.180645754334	727.655778658343	
107	5.555571428571	782.808211172630	1011.367903183021	430.305738224711	983.422086061269	1436.964776213422	249.457710072739	1071.808064720885	1370.628029822540	419.806020757204	974.182658905166	1444.545838725062	586.063479128688	953.405542242700	1500.675014371062	405.330414915323	1005.416389508937	954.088222030634	562.072135127765	1008.507484862788	966.866890142182	287.580395564437	1096.775731495596	792.330541319732	532.322072679592	1066.070010244837	670.933469469226	612.665627122749	1156.139818945792	635.156892334168	534.464781799024	1187.150901555394	534.038844407911	559.798886497068	1044.357254150853	747.063231783318	319.438543779980	951.110033923420	636.774298560768	253.562983085520	1025.631101351500	555.204163277561	321.111716356865	1020.086525562022	487.707949369504	331.287784805506	994.117599180106	416.367818666176	321.369551817511	904.533900913389	302.617939092762	270.178813043920	951.698701340152	191.999725629715	343.874243243936	1134.453953104480	446.246031284193	572.521441131946	1036.542104221270	373.452489436944	641.971826512088	1054.432474213243	263.688742067979	596.490217879542	883.220813810840	145.460648569836	583.137661838159	1062.435844821302	137.313576425367	616.188384634248	959.618526674029	107.299244307655	654.221340777638	1156.063925317913	47.476301388389	640.392236917864	822.105198013544	37.931522870226	389.625970833721	892.301782506812	34.915769617853	305.266564838427	976.151574161378	96.351358135194	330.324172519930	1103.621037898964	46.185190173949	294.539727642904	1011.939774223634	1105.096861450470	92.014346789718	1238.473972403419	972.288187425264	79.444800423440	864.163852240349	1117.603408955737	708.761576848640	879.234495629784	857.524838776084	728.233590713431	
108	5.568642857143	782.632636925301	1011.843916128981	428.910726090726	985.812778268200	1437.153765924250	250.063154643237	1072.558375548477	1370.352081489848	421.040855040417	973.816623492507	1444.452302551065	586.509684432867	954.486794006840	1500.713788158943	405.876720198084	1003.957761381971	954.006620646288	562.953964790947	1009.259776626055	966.526636667479	288.323431893071	1094.430711538888	791.485991759953	534.242941658886	1061.788154268330	670.231691807096	614.380806906293	1152.123375483473	633.870418961245	536.898563613052	1183.420495331038	535.202922059505	561.765748898585	1042.930627342825	746.316418571346	321.065830077613	949.320317666989	636.809575837030	253.622671323127	1022.151236443898	554.611740096087	321.964728500633	1015.919778481911	487.251078231678	331.907421560313	989.893957854303	416.069376326701	321.762379483886	900.223490004448	302.560485574355	270.245115255309	946.772258807086	191.820210984689	344.089444208562	1135.591244020677	446.605528636167	574.426569853255	1043.271669224457	367.837027883759	644.425981662068	1068.053848706630	259.563426846631	598.492861939537	905.359283301568	130.028102525531	585.387369230667	1084.581864042071	134.185058396404	618.161030665505	984.268089888620	97.632680273630	656.609737338390	1184.026257728038	51.341469036733	642.746511709363	816.850525425061	37.912609817029	389.595764326527	887.047980405654	34.901675394474	305.263699073031	970.919723906809	96.320145953746	330.404478626540	1098.362916143748	46.108428755245	294.599716017918	1015.521562517751	1106.538187858711	91.018847683445	1246.250831899123	981.650508865782	79.315421186387	857.052511692622	1120.094538897194	708.143272816362	864.598664464635	859.849104133648	728.455239826769	
109	5.581714285714	782.594755425714	1012.264458943678	427.740876254352	988.152963868848	1437.228698041517	250.784267530155	1073.387203151889	1370.009448111660	422.331244824604	973.668377893787	1444.328855885158	587.063503040505	955.624889829490	1500.688893652120	406.498124225032	1002.653490048900	953.799267624435	564.007143797625	1010.077531659987	966.131947677868	289.221787334968	1091.649516579838	789.914770072044	536.428257765930	1056.638276111704	668.993555134798	616.260354596551	1147.107249775952	631.758572344503	539.413506424376	1178.546744718635	535.754055278266	563.625735493962	1041.553135767504	745.545664840632	322.743552212266	947.558524956400	636.836100981324	253.789880641846	1018.714642296145	554.015918436488	322.877412903035	1011.812887437254	486.787050544924	332.573405927638	985.717814656439	415.764615772537	322.213255781783	895.930519577812	302.518879796750	270.365236809832	941.847528404757	191.627366037805	344.328652413321	1135.850135839908	446.750220456034	576.306302410053	1049.779082843256	362.155606589698	646.972913952747	1081.561247946180	255.879625353410	600.469626854014	928.472038906809	115.221559763409	587.731937840359	1106.955440979837	131.923626960289	619.941912868994	1009.685122987898	88.732632703564	658.904034565449	1211.924926370150	56.542171291200	644.557929312132	811.603038528925	37.899902703112	389.566764702799	881.795293187708	34.890932092457	305.264351019217	965.694313627949	96.283605015268	330.490552316148	1093.105950246278	46.009477062556	294.660836542874	1019.088047348055	1107.793640915458	90.310356906122	1253.514898415369	990.592742262902	79.541475246284	850.932668188897	1122.322942596040	707.441448399307	851.365560841872	862.071298009961	728.329651985071	
110	5.594785714286	782.708749717858	1012.621677293113	426.838482330252	990.411972676550	1437.199100638038	251.618526540432	1074.287667303496	1369.612959422825	423.667847145540	973.735960950519	1444.175095890841	587.730530462084	956.803089960053	1500.603598055758	407.202803794683	1001.544223055927	953.480706053074	565.208727851949	1010.961457403050	965.698229719904	290.264483650324	1088.468601496369	787.654211981779	538.823362354723	1050.791875118405	667.297974441176	618.272596177983	1141.225928517342	628.930828291331	541.906573115658	1172.691278665882	535.752195644247	565.314611175738	1040.251237511526	744.749349393953	324.442942056742	945.840790816898	636.843496313928	254.082159400844	1015.375007221619	553.409534478735	323.848018947274	1007.825163410446	486.306043193525	333.294107095703	981.634552062397	415.442284406391	322.734035643576	891.683087595021	302.497040616599	270.550613056504	936.937788584631	191.417823368948	344.597790294770	1135.269254060949	446.742508018131	578.122345267868	1055.913486991372	356.615417433602	649.492975033550	1094.657358723443	252.815148841444	602.337671814406	952.036900458992	101.508888635734	589.978418459471	1129.046090866998	130.671059027722	621.458315248850	1035.267432445799	80.901206653067	660.952057350533	1239.104668866853	63.033914558810	645.801913942524	806.360083638480	37.898464835220	389.539533877870	876.542954729524	34.886453937872	305.268573516747	960.477466442332	96.242043696655	330.582293833702	1087.851727539285	45.887878664017	294.720360081170	1022.631130276607	1108.854816726314	89.911788679457	1260.270769737682	999.008862201922	80.113408403728	845.784941819081	1124.251563945260	706.698127126528	839.629821975842	864.115924177889	727.878714870489	
